<svg xmlns="http://www.w3.org/2000/svg" xmlns:xlink="http://www.w3.org/1999/xlink" width="200" height="200" class="icon" p-id="2909" t="1655045441600" version="1.1" viewBox="0 0 1024 1024"><defs><style type="text/css">@font-face{font-family:feedback-iconfont;src:url(//at.alicdn.com/t/font_1031158_u69w8yhxdu.woff2?t=1630033759944) format(&quot;woff2&quot;),url(//at.alicdn.com/t/font_1031158_u69w8yhxdu.woff?t=1630033759944) format(&quot;woff&quot;),url(//at.alicdn.com/t/font_1031158_u69w8yhxdu.ttf?t=1630033759944) format(&quot;truetype&quot;)}</style></defs><path d="M771.899308 415.474596 545.067116 415.474596l-23.528879 73.415057L492.316705 488.889653l-24.50409-73.415057-215.712947 0 0 193.049784 214.242456 0 25.974581-72.311933 29.220508 0 23.528879 72.311933 226.832192 0L771.898285 415.474596zM432.846242 565.697993 307.631426 565.697993 307.631426 459.326337l126.579907 0 8.358365 32.066323-33.881668 0 0 42.237987 33.885761 0L432.846242 565.697993zM715.745381 565.697993l-135.588071 0-7.517207-31.66621 39.105646 0 0-43.039235-39.102576 0 7.513114-31.66621 135.588071 0L715.744357 565.697993z" p-id="2910"/></svg>